<svg width="54" height="76" viewBox="0 0 54 76" fill="none" xmlns="http://www.w3.org/2000/svg">
<path d="M5.78437 75.2601C4.61802 75.2873 3.58612 74.755 2.68869 73.6632C1.79125 72.5713 1.32741 71.2839 1.29718 69.8009L0.125567 12.3336C0.0953318 10.8506 0.506257 9.54274 1.35834 8.41004C2.21043 7.27734 3.21964 6.69738 4.38599 6.67014L9.12428 6.55948L9.0109 0.998139L13.7492 0.887484L13.8626 6.44883L38.6475 5.87002L38.5341 0.308673L43.2724 0.198018L43.3858 5.75936L48.1241 5.64871C49.2904 5.62147 50.3223 6.15377 51.2197 7.24561C52.1172 8.33745 52.581 9.62488 52.6113 11.1079L53.7829 68.5751C53.8131 70.0582 53.4022 71.366 52.5501 72.4987C51.698 73.6314 50.6888 74.2114 49.5224 74.2386L5.78437 75.2601ZM5.67098 69.6987L49.4091 68.6773L48.5965 28.821L4.85842 29.8424L5.67098 69.6987ZM4.74503 24.2811L48.4831 23.2596L48.2374 11.2101L4.49937 12.2315L4.74503 24.2811ZM27.0487 45.0888C26.2225 45.1081 25.5228 44.769 24.9494 44.0714C24.376 43.3739 24.0787 42.4998 24.0572 41.4494C24.0358 40.3989 24.2973 39.5118 24.8417 38.7882C25.3861 38.0645 26.0714 37.693 26.8975 37.6737C27.7237 37.6544 28.4235 37.9935 28.9968 38.6911C29.5702 39.3887 29.8676 40.2627 29.889 41.3132C29.9104 42.3637 29.6489 43.2507 29.1045 43.9744C28.5601 44.6981 27.8749 45.0695 27.0487 45.0888ZM15.3852 45.3612C14.5591 45.3805 13.8593 45.0414 13.2859 44.3438C12.7126 43.6462 12.4152 42.7722 12.3938 41.7217C12.3723 40.6713 12.6338 39.7842 13.1782 39.0605C13.7226 38.3369 14.4079 37.9654 15.234 37.9461C16.0602 37.9268 16.76 38.2659 17.3333 38.9635C17.9067 39.6611 18.2041 40.5351 18.2255 41.5856C18.2469 42.636 17.9854 43.5231 17.441 44.2468C16.8967 44.9704 16.2114 45.3419 15.3852 45.3612ZM38.7122 44.8165C37.886 44.8357 37.1863 44.4966 36.6129 43.799C36.0395 43.1015 35.7421 42.2275 35.7207 41.177C35.6993 40.1265 35.9608 39.2394 36.5052 38.5158C37.0496 37.7921 37.7348 37.4206 38.561 37.4013C39.3872 37.382 40.0869 37.7212 40.6603 38.4187C41.2337 39.1163 41.5311 39.9903 41.5525 41.0408C41.5739 42.0913 41.3124 42.9783 40.768 43.702C40.2236 44.4257 39.5384 44.7972 38.7122 44.8165ZM27.3511 59.9191C26.5249 59.9384 25.8251 59.5992 25.2518 58.9017C24.6784 58.2041 24.381 57.3301 24.3596 56.2796C24.3382 55.2291 24.5997 54.3421 25.144 53.6184C25.6884 52.8947 26.3737 52.5233 27.1999 52.504C28.026 52.4847 28.7258 52.8238 29.2992 53.5214C29.8725 54.2189 30.1699 55.093 30.1913 56.1434C30.2128 57.1939 29.9513 58.081 29.4069 58.8046C28.8625 59.5283 28.1772 59.8998 27.3511 59.9191ZM15.6876 60.1915C14.8614 60.2108 14.1616 59.8716 13.5883 59.1741C13.0149 58.4765 12.7175 57.6025 12.6961 56.552C12.6747 55.5015 12.9362 54.6145 13.4806 53.8908C14.025 53.1671 14.7102 52.7956 15.5364 52.7763C16.3626 52.757 17.0623 53.0962 17.6357 53.7937C18.209 54.4913 18.5064 55.3653 18.5278 56.4158C18.5493 57.4663 18.2878 58.3534 17.7434 59.077C17.199 59.8007 16.5137 60.1722 15.6876 60.1915ZM39.0145 59.6467C38.1884 59.666 37.4886 59.3269 36.9152 58.6293C36.3419 57.9317 36.0445 57.0577 36.0231 56.0072C36.0017 54.9568 36.2631 54.0697 36.8075 53.346C37.3519 52.6224 38.0372 52.2509 38.8634 52.2316C39.6895 52.2123 40.3893 52.5514 40.9627 53.249C41.536 53.9465 41.8334 54.8206 41.8548 55.871C41.8762 56.9215 41.6148 57.8086 41.0704 58.5323C40.526 59.2559 39.8407 59.6274 39.0145 59.6467Z" fill="#F8F2F9"/>
</svg>
