<svg width="68" height="54" viewBox="0 0 68 54" fill="none" xmlns="http://www.w3.org/2000/svg">
<path d="M7.3333 53.6666C5.49996 53.6666 3.92996 53.0133 2.6233 51.7066C1.31663 50.3999 0.664409 48.831 0.666632 46.9999V6.99992C0.666632 5.16659 1.31997 3.59659 2.62663 2.28992C3.9333 0.983257 5.50219 0.331035 7.3333 0.333258H60.6666C62.5 0.333258 64.07 0.98659 65.3766 2.29326C66.6833 3.59992 67.3355 5.16881 67.3333 6.99992V46.9999C67.3333 48.8333 66.68 50.4033 65.3733 51.7099C64.0666 53.0166 62.4977 53.6688 60.6666 53.6666H7.3333ZM34 30.3333L7.3333 13.6666V46.9999H60.6666V13.6666L34 30.3333ZM34 23.6666L60.6666 6.99992H7.3333L34 23.6666ZM7.3333 13.6666V6.99992V46.9999V13.6666Z" fill="#F8F2F9"/>
</svg>
