<svg width="150" height="150" viewBox="0 0 150 150" fill="none" xmlns="http://www.w3.org/2000/svg">
<path d="M74.7 40.375C76.1062 48.3438 72.3187 56.3062 65.2875 60.1812C62.1938 61.8812 59.375 67.1 59.375 71.1312V75H53.125V71.1312C53.125 64.85 57.2312 57.4813 62.275 54.7063C67.0375 52.0813 69.5 46.8812 68.55 41.4625C67.6625 36.45 63.55 32.3375 58.5375 31.45C54.775 30.8 51.0938 31.75 48.2188 34.175C45.3813 36.5625 43.75 40.0438 43.75 43.75H37.5C37.5 38.1937 39.9438 32.9562 44.1938 29.3875C48.4438 25.8188 54.0438 24.3187 59.625 25.3C67.175 26.625 73.375 32.825 74.7 40.375ZM56.25 81.25C52.8 81.25 50 84.05 50 87.5C50 90.95 52.8 93.75 56.25 93.75C59.7 93.75 62.5 90.95 62.5 87.5C62.5 84.05 59.7 81.25 56.25 81.25ZM124.975 56.75C124.956 59.1375 124.819 61.4938 124.562 63.8188C136.137 71.7 143.75 84.975 143.75 100V143.75H100C84.975 143.75 71.7 136.131 63.8188 124.562C61.4938 124.819 59.1375 124.963 56.75 124.975C65.4062 139.906 81.5312 150 100 150H150V100C150 81.5312 139.906 65.4062 124.975 56.75ZM78.5312 107.894C71.6937 110.856 64.1625 112.5 56.25 112.5H0V56.25C0 25.2313 25.2313 0 56.25 0C87.2687 0 112.5 25.2313 112.5 56.25C112.5 77.0062 101.2 95.1687 84.4375 104.912L97.7562 117.794C99.0125 119.056 101 119.05 102.213 117.831L127.625 92.9563L131.994 97.425L106.606 122.281C104.794 124.094 102.406 125.006 100.006 125.006C97.6062 125.006 95.2 124.094 93.3688 122.263L78.525 107.906L78.5312 107.894ZM56.25 106.25C83.8187 106.25 106.25 83.8187 106.25 56.25C106.25 28.6813 83.8187 6.25 56.25 6.25C28.6813 6.25 6.25 28.6813 6.25 56.25V106.25H56.25Z" fill="#F8F2F9"/>
</svg>
