<svg width="62" height="56" viewBox="0 0 62 56" fill="none" xmlns="http://www.w3.org/2000/svg">
<path d="M57.1016 0.365711C56.3492 0.420451 55.6107 0.596965 54.9148 0.888366H54.9055C54.2375 1.15321 51.0617 2.48915 46.2336 4.51415L28.932 11.8009C16.5172 17.0274 4.31327 22.1743 4.31327 22.1743L4.45858 22.1181C4.45858 22.1181 3.61718 22.3946 2.73827 22.997C2.19529 23.3425 1.72805 23.7946 1.36483 24.3259C0.933582 24.9587 0.586707 25.9266 0.715613 26.9274C0.926551 28.6196 2.02343 29.6345 2.81093 30.1946C3.6078 30.7618 4.36718 31.0266 4.36718 31.0266H4.38593L15.8305 34.8821C16.3437 36.5298 19.318 46.3079 20.0328 48.5602C20.4547 49.9056 20.8648 50.747 21.3781 51.3891C21.6266 51.7173 21.9172 51.9915 22.2664 52.2118C22.4479 52.3174 22.6415 52.4008 22.843 52.4602L22.7258 52.4321C22.7609 52.4415 22.7891 52.4696 22.8148 52.479C22.9086 52.5048 22.9719 52.5141 23.0914 52.5329C24.9031 53.0813 26.3586 51.9563 26.3586 51.9563L26.4406 51.8907L33.1976 45.7384L44.5226 54.4266L44.7805 54.5368C47.1406 55.5727 49.5312 54.9962 50.7945 53.979C52.0672 52.9548 52.5617 51.6446 52.5617 51.6446L52.6437 51.4337L61.3953 6.60008C61.6437 5.49383 61.707 4.4579 61.4328 3.45243C61.15 2.43483 60.4971 1.55963 59.6023 0.998522C58.851 0.541761 57.9797 0.321293 57.1016 0.365711ZM56.8648 5.1704C56.8555 5.31805 56.8836 5.30165 56.818 5.58524V5.61102L48.1484 49.9782C48.1109 50.0415 48.0476 50.1798 47.8742 50.3181C47.6914 50.4634 47.5461 50.5548 46.7844 50.2524L32.9328 39.6329L24.5656 47.2595L26.3234 36.0329L48.9547 14.9391C49.8875 14.072 49.5758 13.8891 49.5758 13.8891C49.6414 12.8251 48.1672 13.5774 48.1672 13.5774L19.6297 31.2563L19.6203 31.2095L5.94218 26.604V26.5946L5.90702 26.5876C5.931 26.5796 5.95448 26.5702 5.97733 26.5595L6.05233 26.522L6.12499 26.4962C6.12499 26.4962 18.3383 21.3493 30.7531 16.1227C36.9687 13.5048 43.2312 10.8681 48.0476 8.83368C50.9041 7.63134 53.7635 6.43603 56.6258 5.24774C56.818 5.17274 56.7266 5.17274 56.8648 5.17274V5.1704Z" fill="#F8F2F9"/>
</svg>
