<svg width="25" height="25" viewBox="0 0 25 25" fill="none" xmlns="http://www.w3.org/2000/svg">
<path d="M20.3672 3.12198C20.1164 3.14023 19.8702 3.19907 19.6383 3.2962H19.6352C19.4125 3.38448 18.3539 3.8298 16.7445 4.5048L10.9773 6.9337C6.83906 8.67589 2.77109 10.3915 2.77109 10.3915L2.81953 10.3728C2.81953 10.3728 2.53906 10.465 2.24609 10.6657C2.0651 10.7809 1.90936 10.9316 1.78828 11.1087C1.64453 11.3196 1.52891 11.6423 1.57188 11.9759C1.64219 12.54 2.00781 12.8782 2.27031 13.065C2.53594 13.254 2.78906 13.3423 2.78906 13.3423H2.79531L6.61016 14.6275C6.78125 15.1767 7.77266 18.436 8.01094 19.1868C8.15156 19.6353 8.28828 19.9157 8.45938 20.1298C8.54219 20.2392 8.63906 20.3306 8.75547 20.404C8.81599 20.4392 8.88051 20.467 8.94766 20.4868L8.9086 20.4775C8.92031 20.4806 8.92969 20.49 8.93828 20.4931C8.96953 20.5017 8.99063 20.5048 9.03047 20.511C9.63438 20.6939 10.1195 20.3189 10.1195 20.3189L10.1469 20.297L12.3992 18.2462L16.1742 21.1423L16.2602 21.179C17.0469 21.5243 17.8438 21.3321 18.2648 20.9931C18.6891 20.6517 18.8539 20.215 18.8539 20.215L18.8813 20.1446L21.7984 5.20011C21.8813 4.83136 21.9023 4.48605 21.8109 4.15089C21.7167 3.81169 21.499 3.51996 21.2008 3.33292C20.9503 3.18067 20.6599 3.10718 20.3672 3.12198ZM20.2883 4.72355C20.2852 4.77277 20.2945 4.7673 20.2727 4.86183V4.87042L17.3828 19.6595C17.3703 19.6806 17.3492 19.7267 17.2914 19.7728C17.2305 19.8212 17.182 19.8517 16.9281 19.7509L12.3109 16.211L9.52188 18.7532L10.1078 15.011L17.6516 7.9798C17.9625 7.69073 17.8586 7.6298 17.8586 7.6298C17.8805 7.27511 17.3891 7.52589 17.3891 7.52589L7.87656 13.4189L7.87344 13.4032L3.31406 11.8681V11.865L3.30235 11.8626C3.31034 11.86 3.31816 11.8568 3.32578 11.8532L3.35078 11.8407L3.375 11.8321C3.375 11.8321 7.44609 10.1165 11.5844 8.37433C13.6563 7.50167 15.7438 6.62277 17.3492 5.94464C18.3014 5.54386 19.2545 5.14542 20.2086 4.74933C20.2727 4.72433 20.2422 4.72433 20.2883 4.72433V4.72355Z" fill="#F8F2F9"/>
</svg>
