<svg width="25" height="25" viewBox="0 0 25 25" fill="none" xmlns="http://www.w3.org/2000/svg">
<path d="M1.5625 12.4969C1.5625 9.5969 2.71451 6.8157 4.7651 4.7651C6.8157 2.71451 9.5969 1.5625 12.4969 1.5625C15.3968 1.5625 18.178 2.71451 20.2286 4.7651C22.2792 6.8157 23.4312 9.5969 23.4312 12.4969C23.4312 15.3969 22.2792 18.1781 20.2286 20.2286C18.178 22.2792 15.3968 23.4312 12.4969 23.4312C9.5969 23.4312 6.8157 22.2792 4.7651 20.2286C2.71451 18.1781 1.5625 15.3969 1.5625 12.4969ZM12.4969 3.125L12.4187 3.125C12.5625 3.40625 12.7187 3.74219 12.8594 4.11563C13.2391 5.125 13.5844 6.60312 12.9703 7.90937C12.4047 9.1125 11.4312 9.425 10.7047 9.6125L10.5984 9.63906C9.89219 9.82187 9.59844 9.89687 9.3875 10.2172C9.19062 10.5172 9.225 10.8937 9.45 11.6234L9.5 11.7875C9.58906 12.0719 9.69531 12.4094 9.75 12.7281C9.82031 13.125 9.83906 13.6219 9.58906 14.1031C9.37608 14.5331 9.03705 14.888 8.61719 15.1203C8.29148 15.2853 7.94105 15.3962 7.57969 15.4484L7.47187 15.4672C6.9125 15.5656 6.62812 15.6156 6.35625 15.9078C6.14219 16.1375 6.00937 16.5359 5.93125 17.1141C5.9 17.35 5.88125 17.5844 5.86094 17.8266L5.85156 17.9547C5.82969 18.2203 5.80156 18.5234 5.74219 18.7828L5.70469 18.9547C6.57909 19.877 7.63242 20.6112 8.80027 21.1126C9.96813 21.6139 11.226 21.8717 12.4969 21.8703C14.1759 21.8728 15.8245 21.4221 17.2687 20.5656C17.1254 20.425 16.9908 20.2758 16.8656 20.1187C16.4953 19.6531 16.0156 18.8578 16.1812 17.9219C16.2609 17.4734 16.5016 17.0953 16.7375 16.8031C16.9781 16.5062 17.2687 16.2313 17.5234 15.9953C17.5811 15.9426 17.639 15.89 17.6969 15.8375C17.8922 15.6578 18.0609 15.5047 18.2031 15.3547C18.2737 15.2835 18.339 15.2072 18.3984 15.1266C18.4178 15.101 18.434 15.0732 18.4469 15.0438C18.525 14.7828 18.4312 14.5906 18.3156 14.5016C18.2297 14.4359 18.0109 14.3375 17.6187 14.5844C17.4884 14.669 17.3566 14.7513 17.2234 14.8312C17.0903 14.9137 16.9454 14.9753 16.7937 15.0141C16.5881 15.0633 16.3714 15.0326 16.1875 14.9282C16.0036 14.8238 15.8662 14.6534 15.8031 14.4516C15.772 14.3504 15.7572 14.2449 15.7594 14.1391C15.7596 14.0401 15.7679 13.9413 15.7844 13.8437C15.8234 13.5156 15.8828 13.0312 15.6953 12.3094C15.5437 11.7297 15.3234 11.2875 15.0984 10.8375C14.991 10.6255 14.8889 10.4108 14.7922 10.1937C14.6547 9.88125 14.5047 9.475 14.5312 9.04375C14.5625 8.54375 14.8141 8.1375 15.2219 7.83125C15.7172 7.45938 16.3406 6.60781 16.8797 5.74688C17.1375 5.33594 17.3594 4.95 17.5156 4.66875L17.5516 4.60313C16.0436 3.63515 14.2888 3.12199 12.4969 3.125ZM18.8047 5.56406C18.6453 5.84531 18.4406 6.2 18.2047 6.57656C17.675 7.42031 16.9172 8.51406 16.1594 9.08125C16.134 9.0992 16.1109 9.12019 16.0906 9.14375C16.0906 9.18594 16.1062 9.30156 16.2219 9.56563C16.2734 9.67969 16.3437 9.82344 16.425 9.9875C16.6703 10.4781 17.0125 11.1672 17.2062 11.9156C17.3109 12.3156 17.3609 12.6719 17.3781 12.9797C18.0594 12.7547 18.7437 12.8578 19.2719 13.2656C19.925 13.7703 20.1984 14.6484 19.9437 15.4969C19.825 15.8844 19.5531 16.2047 19.3344 16.4344C19.15 16.6266 18.9281 16.8281 18.7281 17.0125L18.5812 17.1453C18.3575 17.3437 18.1481 17.5578 17.9547 17.7859C17.7891 17.9891 17.7328 18.1219 17.7203 18.1953C17.6734 18.4531 17.8 18.7844 18.0891 19.1484C18.2324 19.3269 18.3931 19.4907 18.5687 19.6375C19.6044 18.7584 20.4362 17.6642 21.0061 16.431C21.576 15.1979 21.8704 13.8554 21.8687 12.4969C21.8687 9.75 20.6875 7.27813 18.8047 5.56406ZM3.125 12.4969C3.12218 14.1261 3.54615 15.7277 4.35469 17.1422L4.38281 16.9078C4.46719 16.275 4.64531 15.45 5.21406 14.8422C5.86094 14.1484 6.65625 14.0172 7.16406 13.9344C7.21406 13.9266 7.2625 13.9187 7.30625 13.9094C7.57812 13.8625 7.74219 13.8187 7.86875 13.7484C8.01638 13.6639 8.13344 13.5349 8.20312 13.3797C8.225 13.3375 8.25469 13.2391 8.2125 12.9969C8.17656 12.7891 8.10781 12.5719 8.02031 12.2922C7.99879 12.2224 7.97743 12.1527 7.95625 12.0828C7.75312 11.4187 7.43437 10.3406 8.08125 9.35781C8.64531 8.50312 9.55 8.28594 10.1344 8.14375L10.3125 8.1C10.9344 7.93906 11.3016 7.7875 11.5562 7.24531C11.8875 6.53906 11.7437 5.58594 11.3969 4.66719C11.2152 4.18938 10.9903 3.72914 10.725 3.29219C8.58613 3.70461 6.65762 4.84895 5.27074 6.52866C3.88386 8.20838 3.12517 10.3186 3.125 12.4969Z" fill="#F8F2F9"/>
</svg>
